<mxfile host="app.diagrams.net" modified="2023-08-10T12:39:34.535Z" agent="Mozilla/5.0 (Windows NT 10.0; Win64; x64) AppleWebKit/537.36 (KHTML, like Gecko) Chrome/115.0.0.0 Safari/537.36" etag="V8Lk3wYWrwscNGwxd2a7" version="21.6.7" type="github">
  <diagram name="페이지-1" id="axtfGhd3DeizFLT9HOAL">
    <mxGraphModel dx="1434" dy="758" grid="1" gridSize="10" guides="1" tooltips="1" connect="1" arrows="1" fold="1" page="1" pageScale="1" pageWidth="827" pageHeight="1169" math="0" shadow="0">
      <root>
        <mxCell id="0" />
        <mxCell id="1" parent="0" />
        <mxCell id="yGNI9pminCK-v2cQuEcI-1" value="이용자" style="shape=umlActor;verticalLabelPosition=bottom;verticalAlign=top;html=1;" vertex="1" parent="1">
          <mxGeometry x="10" y="340" width="30" height="60" as="geometry" />
        </mxCell>
        <mxCell id="yGNI9pminCK-v2cQuEcI-6" value="게시판 서비스" style="shape=umlFrame;whiteSpace=wrap;html=1;pointerEvents=0;width=120;height=20;" vertex="1" parent="1">
          <mxGeometry x="90" y="120" width="550" height="570" as="geometry" />
        </mxCell>
        <mxCell id="yGNI9pminCK-v2cQuEcI-21" style="rounded=0;orthogonalLoop=1;jettySize=auto;html=1;exitX=0;exitY=0.5;exitDx=0;exitDy=0;entryX=1;entryY=0.3333333333333333;entryDx=0;entryDy=0;entryPerimeter=0;endArrow=none;endFill=0;" edge="1" parent="1" source="yGNI9pminCK-v2cQuEcI-8" target="yGNI9pminCK-v2cQuEcI-1">
          <mxGeometry relative="1" as="geometry" />
        </mxCell>
        <mxCell id="yGNI9pminCK-v2cQuEcI-8" value="회원가입" style="rounded=1;whiteSpace=wrap;html=1;arcSize=40;fontColor=#000000;fillColor=#ffffc0;strokeColor=#ff0000;" vertex="1" parent="1">
          <mxGeometry x="120" y="170" width="120" height="40" as="geometry" />
        </mxCell>
        <mxCell id="yGNI9pminCK-v2cQuEcI-23" style="edgeStyle=none;shape=connector;rounded=0;orthogonalLoop=1;jettySize=auto;html=1;exitX=0;exitY=0.5;exitDx=0;exitDy=0;entryX=1;entryY=0.3333333333333333;entryDx=0;entryDy=0;entryPerimeter=0;labelBackgroundColor=default;strokeColor=default;fontFamily=Helvetica;fontSize=11;fontColor=default;endArrow=none;endFill=0;" edge="1" parent="1" source="yGNI9pminCK-v2cQuEcI-10" target="yGNI9pminCK-v2cQuEcI-1">
          <mxGeometry relative="1" as="geometry" />
        </mxCell>
        <mxCell id="yGNI9pminCK-v2cQuEcI-30" style="edgeStyle=none;shape=connector;rounded=0;orthogonalLoop=1;jettySize=auto;html=1;exitX=0.5;exitY=1;exitDx=0;exitDy=0;entryX=0.5;entryY=0;entryDx=0;entryDy=0;labelBackgroundColor=default;strokeColor=default;fontFamily=Helvetica;fontSize=11;fontColor=default;endArrow=classic;endFill=1;dashed=1;" edge="1" parent="1" source="yGNI9pminCK-v2cQuEcI-10" target="yGNI9pminCK-v2cQuEcI-14">
          <mxGeometry relative="1" as="geometry" />
        </mxCell>
        <mxCell id="yGNI9pminCK-v2cQuEcI-32" value="&amp;lt;&amp;lt; include &amp;gt;&amp;gt;" style="edgeLabel;html=1;align=center;verticalAlign=middle;resizable=0;points=[];fontSize=11;fontFamily=Helvetica;fontColor=default;" vertex="1" connectable="0" parent="yGNI9pminCK-v2cQuEcI-30">
          <mxGeometry x="-0.2694" relative="1" as="geometry">
            <mxPoint y="-1" as="offset" />
          </mxGeometry>
        </mxCell>
        <mxCell id="yGNI9pminCK-v2cQuEcI-48" style="edgeStyle=none;shape=connector;rounded=0;orthogonalLoop=1;jettySize=auto;html=1;exitX=1;exitY=0.5;exitDx=0;exitDy=0;entryX=0;entryY=0.5;entryDx=0;entryDy=0;labelBackgroundColor=default;strokeColor=default;fontFamily=Helvetica;fontSize=11;fontColor=default;endArrow=none;endFill=0;" edge="1" parent="1" source="yGNI9pminCK-v2cQuEcI-10" target="yGNI9pminCK-v2cQuEcI-45">
          <mxGeometry relative="1" as="geometry" />
        </mxCell>
        <mxCell id="yGNI9pminCK-v2cQuEcI-10" value="게시판 보기" style="rounded=1;whiteSpace=wrap;html=1;arcSize=40;fontColor=#000000;fillColor=#ffffc0;strokeColor=#ff0000;" vertex="1" parent="1">
          <mxGeometry x="150" y="260" width="120" height="40" as="geometry" />
        </mxCell>
        <mxCell id="yGNI9pminCK-v2cQuEcI-24" style="edgeStyle=none;shape=connector;rounded=0;orthogonalLoop=1;jettySize=auto;html=1;exitX=0;exitY=0.5;exitDx=0;exitDy=0;entryX=1;entryY=0.3333333333333333;entryDx=0;entryDy=0;entryPerimeter=0;labelBackgroundColor=default;strokeColor=default;fontFamily=Helvetica;fontSize=11;fontColor=default;endArrow=none;endFill=0;" edge="1" parent="1" source="yGNI9pminCK-v2cQuEcI-11" target="yGNI9pminCK-v2cQuEcI-1">
          <mxGeometry relative="1" as="geometry" />
        </mxCell>
        <mxCell id="yGNI9pminCK-v2cQuEcI-31" style="edgeStyle=none;shape=connector;rounded=0;orthogonalLoop=1;jettySize=auto;html=1;exitX=0.5;exitY=0;exitDx=0;exitDy=0;entryX=0.5;entryY=1;entryDx=0;entryDy=0;labelBackgroundColor=default;strokeColor=default;fontFamily=Helvetica;fontSize=11;fontColor=default;endArrow=classic;endFill=1;dashed=1;" edge="1" parent="1" source="yGNI9pminCK-v2cQuEcI-11" target="yGNI9pminCK-v2cQuEcI-14">
          <mxGeometry relative="1" as="geometry" />
        </mxCell>
        <mxCell id="yGNI9pminCK-v2cQuEcI-33" value="&amp;lt;&amp;lt; include &amp;gt;&amp;gt;" style="edgeLabel;html=1;align=center;verticalAlign=middle;resizable=0;points=[];fontSize=11;fontFamily=Helvetica;fontColor=default;" vertex="1" connectable="0" parent="yGNI9pminCK-v2cQuEcI-31">
          <mxGeometry x="-0.3326" y="1" relative="1" as="geometry">
            <mxPoint x="11" y="40" as="offset" />
          </mxGeometry>
        </mxCell>
        <mxCell id="yGNI9pminCK-v2cQuEcI-49" style="edgeStyle=none;shape=connector;rounded=0;orthogonalLoop=1;jettySize=auto;html=1;exitX=1;exitY=0.25;exitDx=0;exitDy=0;entryX=0;entryY=0.5;entryDx=0;entryDy=0;labelBackgroundColor=default;strokeColor=default;fontFamily=Helvetica;fontSize=11;fontColor=default;endArrow=none;endFill=0;" edge="1" parent="1" source="yGNI9pminCK-v2cQuEcI-11" target="yGNI9pminCK-v2cQuEcI-45">
          <mxGeometry relative="1" as="geometry" />
        </mxCell>
        <mxCell id="yGNI9pminCK-v2cQuEcI-11" value="게시글 보기" style="rounded=1;whiteSpace=wrap;html=1;arcSize=40;fontColor=#000000;fillColor=#ffffc0;strokeColor=#ff0000;" vertex="1" parent="1">
          <mxGeometry x="150" y="595" width="120" height="40" as="geometry" />
        </mxCell>
        <mxCell id="yGNI9pminCK-v2cQuEcI-22" style="rounded=0;orthogonalLoop=1;jettySize=auto;html=1;exitX=0;exitY=0.5;exitDx=0;exitDy=0;entryX=1;entryY=0.3333333333333333;entryDx=0;entryDy=0;entryPerimeter=0;endArrow=none;endFill=0;" edge="1" parent="1" source="yGNI9pminCK-v2cQuEcI-14" target="yGNI9pminCK-v2cQuEcI-1">
          <mxGeometry relative="1" as="geometry" />
        </mxCell>
        <mxCell id="yGNI9pminCK-v2cQuEcI-26" style="edgeStyle=none;shape=connector;rounded=0;orthogonalLoop=1;jettySize=auto;html=1;exitX=1;exitY=0.5;exitDx=0;exitDy=0;entryX=0;entryY=0.5;entryDx=0;entryDy=0;labelBackgroundColor=default;strokeColor=default;fontFamily=Helvetica;fontSize=11;fontColor=default;endArrow=classic;endFill=1;dashed=1;" edge="1" parent="1" source="yGNI9pminCK-v2cQuEcI-14" target="yGNI9pminCK-v2cQuEcI-15">
          <mxGeometry relative="1" as="geometry" />
        </mxCell>
        <mxCell id="yGNI9pminCK-v2cQuEcI-28" value="&amp;lt;&amp;lt; include &amp;gt;&amp;gt;" style="edgeLabel;html=1;align=center;verticalAlign=middle;resizable=0;points=[];fontSize=11;fontFamily=Helvetica;fontColor=default;" vertex="1" connectable="0" parent="yGNI9pminCK-v2cQuEcI-26">
          <mxGeometry x="0.0124" y="-1" relative="1" as="geometry">
            <mxPoint x="-5" y="-4" as="offset" />
          </mxGeometry>
        </mxCell>
        <mxCell id="yGNI9pminCK-v2cQuEcI-14" value="회원 로그인" style="rounded=1;whiteSpace=wrap;html=1;arcSize=40;fontColor=#000000;fillColor=#ffffc0;strokeColor=#ff0000;" vertex="1" parent="1">
          <mxGeometry x="150" y="420" width="120" height="40" as="geometry" />
        </mxCell>
        <mxCell id="yGNI9pminCK-v2cQuEcI-47" style="edgeStyle=none;shape=connector;rounded=0;orthogonalLoop=1;jettySize=auto;html=1;exitX=1;exitY=0.5;exitDx=0;exitDy=0;entryX=0;entryY=0.5;entryDx=0;entryDy=0;labelBackgroundColor=default;strokeColor=default;fontFamily=Helvetica;fontSize=11;fontColor=default;endArrow=none;endFill=0;" edge="1" parent="1" source="yGNI9pminCK-v2cQuEcI-15" target="yGNI9pminCK-v2cQuEcI-45">
          <mxGeometry relative="1" as="geometry" />
        </mxCell>
        <mxCell id="yGNI9pminCK-v2cQuEcI-15" value="인증" style="rounded=1;whiteSpace=wrap;html=1;arcSize=40;fontColor=#000000;fillColor=#ffffc0;strokeColor=#ff0000;" vertex="1" parent="1">
          <mxGeometry x="340" y="445" width="120" height="40" as="geometry" />
        </mxCell>
        <mxCell id="yGNI9pminCK-v2cQuEcI-27" style="edgeStyle=none;shape=connector;rounded=0;orthogonalLoop=1;jettySize=auto;html=1;exitX=0;exitY=0.5;exitDx=0;exitDy=0;entryX=1;entryY=0.5;entryDx=0;entryDy=0;labelBackgroundColor=default;strokeColor=default;fontFamily=Helvetica;fontSize=11;fontColor=default;endArrow=classic;endFill=1;dashed=1;" edge="1" parent="1" source="yGNI9pminCK-v2cQuEcI-16" target="yGNI9pminCK-v2cQuEcI-14">
          <mxGeometry relative="1" as="geometry" />
        </mxCell>
        <mxCell id="yGNI9pminCK-v2cQuEcI-29" value="&amp;lt;&amp;lt; Extend &amp;gt;&amp;gt;" style="edgeLabel;html=1;align=center;verticalAlign=middle;resizable=0;points=[];fontSize=11;fontFamily=Helvetica;fontColor=default;" vertex="1" connectable="0" parent="yGNI9pminCK-v2cQuEcI-27">
          <mxGeometry x="-0.1811" y="-1" relative="1" as="geometry">
            <mxPoint y="7" as="offset" />
          </mxGeometry>
        </mxCell>
        <mxCell id="yGNI9pminCK-v2cQuEcI-16" value="로그인 실패" style="rounded=1;whiteSpace=wrap;html=1;arcSize=40;fontColor=#000000;fillColor=#ffffc0;strokeColor=#ff0000;" vertex="1" parent="1">
          <mxGeometry x="320" y="350" width="120" height="40" as="geometry" />
        </mxCell>
        <mxCell id="yGNI9pminCK-v2cQuEcI-34" style="edgeStyle=none;shape=connector;rounded=0;orthogonalLoop=1;jettySize=auto;html=1;exitX=0;exitY=0.5;exitDx=0;exitDy=0;entryX=1;entryY=0.5;entryDx=0;entryDy=0;labelBackgroundColor=default;strokeColor=default;fontFamily=Helvetica;fontSize=11;fontColor=default;endArrow=classic;endFill=1;dashed=1;" edge="1" parent="1" source="yGNI9pminCK-v2cQuEcI-17" target="yGNI9pminCK-v2cQuEcI-10">
          <mxGeometry relative="1" as="geometry" />
        </mxCell>
        <mxCell id="yGNI9pminCK-v2cQuEcI-37" value="&amp;lt;&amp;lt; Extend &amp;gt;&amp;gt;" style="edgeLabel;html=1;align=center;verticalAlign=middle;resizable=0;points=[];fontSize=11;fontFamily=Helvetica;fontColor=default;" vertex="1" connectable="0" parent="yGNI9pminCK-v2cQuEcI-34">
          <mxGeometry x="-0.076" y="1" relative="1" as="geometry">
            <mxPoint as="offset" />
          </mxGeometry>
        </mxCell>
        <mxCell id="yGNI9pminCK-v2cQuEcI-17" value="게시판 정렬" style="rounded=1;whiteSpace=wrap;html=1;arcSize=40;fontColor=#000000;fillColor=#ffffc0;strokeColor=#ff0000;" vertex="1" parent="1">
          <mxGeometry x="400" y="160" width="120" height="40" as="geometry" />
        </mxCell>
        <mxCell id="yGNI9pminCK-v2cQuEcI-35" style="edgeStyle=none;shape=connector;rounded=0;orthogonalLoop=1;jettySize=auto;html=1;exitX=0;exitY=0.5;exitDx=0;exitDy=0;labelBackgroundColor=default;strokeColor=default;fontFamily=Helvetica;fontSize=11;fontColor=default;endArrow=classic;endFill=1;dashed=1;entryX=1;entryY=0.5;entryDx=0;entryDy=0;" edge="1" parent="1" source="yGNI9pminCK-v2cQuEcI-18" target="yGNI9pminCK-v2cQuEcI-10">
          <mxGeometry relative="1" as="geometry">
            <mxPoint x="250" y="400" as="targetPoint" />
          </mxGeometry>
        </mxCell>
        <mxCell id="yGNI9pminCK-v2cQuEcI-36" value="&amp;lt;&amp;lt; Extend &amp;gt;&amp;gt;" style="edgeLabel;html=1;align=center;verticalAlign=middle;resizable=0;points=[];fontSize=11;fontFamily=Helvetica;fontColor=default;" vertex="1" connectable="0" parent="yGNI9pminCK-v2cQuEcI-35">
          <mxGeometry x="-0.1743" y="1" relative="1" as="geometry">
            <mxPoint as="offset" />
          </mxGeometry>
        </mxCell>
        <mxCell id="yGNI9pminCK-v2cQuEcI-18" value="게시판 검색" style="rounded=1;whiteSpace=wrap;html=1;arcSize=40;fontColor=#000000;fillColor=#ffffc0;strokeColor=#ff0000;" vertex="1" parent="1">
          <mxGeometry x="400" y="230" width="120" height="40" as="geometry" />
        </mxCell>
        <mxCell id="yGNI9pminCK-v2cQuEcI-38" style="edgeStyle=none;shape=connector;rounded=0;orthogonalLoop=1;jettySize=auto;html=1;exitX=0;exitY=0.5;exitDx=0;exitDy=0;entryX=1;entryY=0.5;entryDx=0;entryDy=0;labelBackgroundColor=default;strokeColor=default;fontFamily=Helvetica;fontSize=11;fontColor=default;endArrow=classic;endFill=1;dashed=1;" edge="1" parent="1" source="yGNI9pminCK-v2cQuEcI-19" target="yGNI9pminCK-v2cQuEcI-11">
          <mxGeometry relative="1" as="geometry" />
        </mxCell>
        <mxCell id="yGNI9pminCK-v2cQuEcI-41" value="&amp;lt;&amp;lt; include &amp;gt;&amp;gt;" style="edgeLabel;html=1;align=center;verticalAlign=middle;resizable=0;points=[];fontSize=11;fontFamily=Helvetica;fontColor=default;" vertex="1" connectable="0" parent="yGNI9pminCK-v2cQuEcI-38">
          <mxGeometry x="0.08" y="1" relative="1" as="geometry">
            <mxPoint as="offset" />
          </mxGeometry>
        </mxCell>
        <mxCell id="yGNI9pminCK-v2cQuEcI-50" style="edgeStyle=none;shape=connector;rounded=0;orthogonalLoop=1;jettySize=auto;html=1;exitX=1;exitY=0.25;exitDx=0;exitDy=0;entryX=0;entryY=0.5;entryDx=0;entryDy=0;labelBackgroundColor=default;strokeColor=default;fontFamily=Helvetica;fontSize=11;fontColor=default;endArrow=none;endFill=0;" edge="1" parent="1" source="yGNI9pminCK-v2cQuEcI-19" target="yGNI9pminCK-v2cQuEcI-45">
          <mxGeometry relative="1" as="geometry" />
        </mxCell>
        <mxCell id="yGNI9pminCK-v2cQuEcI-19" value="게시글 쓰기, 수정, 삭제" style="rounded=1;whiteSpace=wrap;html=1;arcSize=40;fontColor=#000000;fillColor=#ffffc0;strokeColor=#ff0000;" vertex="1" parent="1">
          <mxGeometry x="460" y="545" width="140" height="40" as="geometry" />
        </mxCell>
        <mxCell id="yGNI9pminCK-v2cQuEcI-39" style="edgeStyle=none;shape=connector;rounded=0;orthogonalLoop=1;jettySize=auto;html=1;exitX=0;exitY=0.5;exitDx=0;exitDy=0;labelBackgroundColor=default;strokeColor=default;fontFamily=Helvetica;fontSize=11;fontColor=default;endArrow=classic;endFill=1;dashed=1;entryX=1;entryY=0.5;entryDx=0;entryDy=0;" edge="1" parent="1" source="yGNI9pminCK-v2cQuEcI-20" target="yGNI9pminCK-v2cQuEcI-11">
          <mxGeometry relative="1" as="geometry">
            <mxPoint x="330" y="500" as="targetPoint" />
          </mxGeometry>
        </mxCell>
        <mxCell id="yGNI9pminCK-v2cQuEcI-42" value="&amp;lt;&amp;lt; include &amp;gt;&amp;gt;" style="edgeLabel;html=1;align=center;verticalAlign=middle;resizable=0;points=[];fontSize=11;fontFamily=Helvetica;fontColor=default;" vertex="1" connectable="0" parent="yGNI9pminCK-v2cQuEcI-39">
          <mxGeometry x="-0.0612" y="-1" relative="1" as="geometry">
            <mxPoint x="1" as="offset" />
          </mxGeometry>
        </mxCell>
        <mxCell id="yGNI9pminCK-v2cQuEcI-51" style="edgeStyle=none;shape=connector;rounded=0;orthogonalLoop=1;jettySize=auto;html=1;exitX=1;exitY=0.5;exitDx=0;exitDy=0;entryX=0;entryY=0.5;entryDx=0;entryDy=0;labelBackgroundColor=default;strokeColor=default;fontFamily=Helvetica;fontSize=11;fontColor=default;endArrow=none;endFill=0;" edge="1" parent="1" source="yGNI9pminCK-v2cQuEcI-20" target="yGNI9pminCK-v2cQuEcI-45">
          <mxGeometry relative="1" as="geometry" />
        </mxCell>
        <mxCell id="yGNI9pminCK-v2cQuEcI-20" value="댓글 보기, 쓰기, 수정, 삭제" style="rounded=1;whiteSpace=wrap;html=1;arcSize=40;fontColor=#000000;fillColor=#ffffc0;strokeColor=#ff0000;" vertex="1" parent="1">
          <mxGeometry x="440" y="620" width="160" height="40" as="geometry" />
        </mxCell>
        <mxCell id="yGNI9pminCK-v2cQuEcI-45" value="Data Base" style="html=1;dropTarget=0;whiteSpace=wrap;fontFamily=Helvetica;fontSize=11;fontColor=default;" vertex="1" parent="1">
          <mxGeometry x="690" y="360" width="100" height="90" as="geometry" />
        </mxCell>
      </root>
    </mxGraphModel>
  </diagram>
</mxfile>
